name processed_emg_signals
nRows=98
nColumns=7
 
endheader
time	RGLTMED	RRF	RADDLONG	RST	RTA	RGM
0.9	0.0611216132416516	0.5140274015819676	0.8963817482344296	0.0589162319301418	0.5561250769788931	0.0788581373987625
0.901	0.0609375322943088	0.5106408490273793	0.8944589825345104	0.0580809812666185	0.5579346452591106	0.0790630811926415
0.902	0.0607622159907341	0.5070743121181013	0.8923293218168071	0.0572378962570149	0.5595902003117226	0.0792332199032065
0.903	0.060595808636377	0.5033319387708823	0.8899934886134832	0.0563878203534422	0.5610919045547227	0.0793688875762657
0.904	0.0604384560219805	0.4994180618335793	0.8874524941618651	0.0555316387745437	0.5624400549586813	0.0794704594338969
0.905	0.0602903051366468	0.4953371906223492	0.8847076425844554	0.0546702788963749	0.5636350817411856	0.0795383505583249
0.906	0.0601515038659956	0.4910940022508206	0.881760534272716	0.0538047105910236	0.5646775469136558	0.0795730145488745
0.907	0.0600222006767219	0.4866933327718107	0.8786130684494887	0.0529359465108961	0.5655681426853506	0.0795749421547911
0.908	0.0599025442888942	0.4821401681515248	0.8752674448942774	0.0520650423168154	0.5663076897299318	0.0795446598866408
0.909	0.0597926833372674	0.4774396350970932	0.8717261648246493	0.0511930968481265	0.5668971353200354	0.0794827286090186
0.91	0.0596927660228148	0.4725969917585953	0.8679920309329975	0.0503212522331406	0.567337551335502	0.079389742117168
0.911	0.0596029397557091	0.467617618327819	0.8640681465827291	0.0494506939384366	0.5676301321513354	0.0792663257001071
0.912	0.0595233507910271	0.4625070075559928	0.8599579141710733	0.0485826507555919	0.5677761924124534	0.0791131346926875
0.913	0.0594541438585106	0.4572707552130626	0.8556650326678564	0.0477183947240663	0.5677771647034849	0.0789308530188715
0.914	0.0593954617877643	0.4519145505109026	0.8511934943402494	0.0468592409890122	0.567634597122727	0.0787201917283642
0.915	0.0593474451301605	0.4464441665125554	0.846547580674166	0.0460065475929132	0.5673501507696379	0.0784818875285403
0.916	0.0593102317788279	0.4408654505488469	0.8417318575042196	0.0451617152000368	0.5669255971550675	0.0782167013135019
0.917	0.0592839565878208	0.4351843146628409	0.836751169365083	0.0443261867525696	0.5663628155430228	0.0779254166920278
0.918	0.0592687509917364	0.4294067261014572	0.8316106330789205	0.0435014470575474	0.5656637902319761	0.0776088385161858
0.919	0.0592647426270793	0.4235386978730457	0.8263156305971469	0.0426890223034625	0.564830607782596	0.077267791412423
0.92	0.0592720549565521	0.4175862793889682	0.8208718011201899	0.0418904795055935	0.5638654541974509	0.0769031183170377
0.921	0.059290806897564	0.4115555472072259	0.8152850325232768	0.041107425879202	0.5627706120573097	0.0765156790178722
0.922	0.059321112455948	0.4054525958951831	0.8095614521212992	0.0403415081396026	0.5615484576183183	0.0761063487041584
0.923	0.0593630803657731	0.3992835290279016	0.803707416808432	0.0395944117284502	0.5602014578745699	0.0756760165262493
0.924	0.0594168137360388	0.3930544503376087	0.7977295026111633	0.0388678599655291	0.5587321675908803	0.0752255841670841
0.925	0.0594824097047117	0.38677145502868	0.7916344936971546	0.0381636131256047	0.5571432263106929	0.0747559644270453
0.926	0.0595599591005478	0.3804406212720437	0.7854293708843112	0.0374834674398488	0.5554373553436786	0.0742680798239423
0.927	0.0596495461129606	0.3740680018917939	0.7791212996965118	0.0368292540216417	0.553617354736841	0.0737628612096649
0.928	0.0597512479701836	0.3676596162562399	0.7727176180134763	0.036202837716445	0.5516861002318296	0.0732412464049557
0.929	0.0598651346258197	0.3612214423849467	0.7662258233612909	0.0356061158756245	0.5496465402098598	0.0727041788535629
0.93	0.059991268453986	0.3547594092823046	0.7596535598898461	0.035041017054008	0.5475016926243695	0.0721526062968896
0.931	0.0601297039530044	0.3482793895073103	0.753008605080817	0.0345094996312072	0.5452546419205533	0.0715874794701306
0.932	0.0602804874577321	0.34178719198811	0.7462988562287856	0.0340135503567438	0.5429085359404638	0.0710097508207996
0.933	0.0604436568605448	0.3352885550887381	0.7395323167356777	0.033555182819343	0.5404665828125546	0.0704203732505252
0.934	0.0606192413408299	0.3287891399342916	0.7327170822579613	0.0331364358408873	0.5379320478252135	0.0698202988808934
0.935	0.0608072611029568	0.322294523999676	0.7258613267444096	0.0327593717956236	0.5353082502845278	0.0692104778441327
0.936	0.0610077271223628	0.3158101949663179	0.7189732884010086	0.0324260748554124	0.5325985603570653	0.0685918570993459
0.937	0.0612206408996112	0.3093415448501408	0.7120612556179772	0.0321386491616943	0.5298063958987653	0.0679653792750617
0.9380000000000001	0.0614459942223268	0.3028938644039788	0.7051335528916184	0.0318992169250756	0.5269352192715056	0.0673319815387809
0.9390000000000001	0.0616837689350229	0.2964723377968583	0.6981985267718108	0.0317099164534805	0.5239885341494752	0.0666925944942818
0.9400000000000001	0.0619339367170942	0.2900820375724574	0.6912645318638639	0.0315729001101945	0.5209698823181028	0.0660481411073281
0.9410000000000001	0.0621964588694182	0.2837279198883733	0.6843399169115683	0.0314903322032485	0.5178828404686789	0.0653995356604052
0.9420000000000001	0.0624712861099095	0.2774148200373881	0.6774330109864267	0.0314643868080844	0.5147310169917472	0.064747682736995
0.9430000000000001	0.0627583583785288	0.2711474482510902	0.6705521098069234	0.0314972455254319	0.5115180487717274	0.0640934762358417
0.9440000000000001	0.0630576046523245	0.2649303857858922	0.6637054622111407	0.0315910951767568	0.5082475979844666	0.0634377984155923
0.9450000000000001	0.0633689427709686	0.2587680812904762	0.656901256805658	0.031748125439427	0.5049233488987683	0.0627815189702146
0.9460000000000001	0.0636922792734415	0.2526648474539103	0.6501476088134716	0.0319705264241469	0.5015490046826714	0.0621254941355685
0.9470000000000001	0.0640275092465022	0.2466248579330655	0.643452547143014	0.0322604861969922	0.4981282842151753	0.0614705658275251
0.9480000000000001	0.0643745161858265	0.2406521445579675	0.6368240016997029	0.0326201882488642	0.494664918904227	0.0608175608121792
0.9490000000000001	0.0647331718705593	0.2347505948134918	0.6302697909603207	0.0330518089152023	0.4911626495118397	0.0601672899086868
0.9500000000000001	0.0651033362523839	0.2289239495951751	0.6237976098297893	0.0335575147490617	0.4876252229868565	0.0595205472254104
0.9510000000000001	0.0654848573597857	0.2231758012368386	0.6174150177987157	0.034139459850947	0.4840563893053254	0.0588781094300682
0.9520000000000001	0.0658775712184969	0.2175095918071214	0.6111294274190046	0.0347997831589629	0.4804598983178044	0.0582407350545457
0.9530000000000001	0.0662813017887769	0.211928611672006	0.6049480931134813	0.0355406057030402	0.4768394966023886	0.0576091638350496
0.9540000000000001	0.0666958609201445	0.2064359983200162	0.5988781003336516	0.0363640278272401	0.4731989243216246	0.0569841160880778
0.9550000000000001	0.0671210483241762	0.2010347354465779	0.592926355078384	0.0372721263844881	0.4695419120806168	0.0563662921226571
0.9560000000000001	0.0675566515657608	0.1957276522938711	0.5870995737843386	0.0382669519080387	0.4658721777827549	0.0557563716890608
0.9570000000000001	0.0680024460733143	0.1905174232422317	0.5814042735978905	0.0393505257644107	0.4621934234789426	0.0551550134642012
0.9580000000000001	0.0684581951682298	0.1854065676489832	0.5758467630359965	0.0405248372923608	0.4585093322063657	0.0545628545738397
0.9590000000000001	0.0689236501138189	0.1803974499302071	0.5704331330431226	0.0417918409326572	0.4548235648137791	0.0539805101516857
0.96	0.0693985501840193	0.1754922798803492	0.5651692484496321	0.0431534533534485	0.4511397567713964	0.0534085729355313
0.961	0.0698826227519704	0.1706931132241034	0.5600607398371732	0.0446115505759388	0.4474615149642929	0.0528476129004478
0.962	0.0703755833985225	0.1660018523943499	0.555112995816234	0.0461679651053002	0.4437924144682165	0.0522981769289765
0.963	0.0708771360407341	0.1614202475296263	0.5503311557206794	0.0478244830716459	0.4401359953064094	0.05176078851817
0.964	0.071386973080307	0.156949897683856	0.5457201027247421	0.0495828413860174	0.4364957591854941	0.0512359475232648
0.965	0.0719047755718151	0.1525922522408293	0.5412844573876671	0.0514447249164805	0.4328751662081019	0.0507241299376256
0.966	0.0724302134105164	0.1483486125252462	0.5370285716314304	0.053411763689531	0.4292776315593778	0.0502257877085999
0.967	0.0729629455394057	0.1442201336018338	0.532956523156197	0.0554855301222337	0.4257065221644647	0.0497413485887533
0.968	0.0735026201750145	0.1402078262536788	0.5290721102974605	0.0576675362904954	0.4221651533150792	0.0492712160219157
0.969	0.0740488750516049	0.136312559130828	0.5253788473281531	0.0599592312389967	0.4186567852655963	0.0488157690632809
0.97	0.0746013376831872	0.1325350610597684	0.5218799602083113	0.0623619983382169	0.4151846198023118	0.0483753623328189
0.971	0.0751596256429043	0.128875923504604	0.5185783827849125	0.0648771526938646	0.4117517967924963	0.0479503260011011
0.972	0.0757233468592698	0.125335603170426	0.515476753443932	0.0675059386139182	0.4083613907222291	0.0475409658066388
0.973	0.0762920999285429	0.1219144247395958	0.5125774122175887	0.0702495271383004	0.4050164072332533	0.0471475631038889
0.974	0.0768654744426254	0.1186125837318442	0.5098823983493478	0.0731090136360499	0.4017197796697424	0.0467703749409896
0.975	0.0774430513316475	0.1154301494788093	0.5073934483195154	0.0760854154746937	0.3984743656460018	0.0464096341663501
0.976	0.0780244032205177	0.1123670682043982	0.5051119943348816	0.0791796697664981	0.3952829436461554	0.046065549563121
0.977	0.0786090947984499	0.1094231662023657	0.5030391632844269	0.0823926311960742	0.3921482096666426	0.0457383060106197
0.978	0.079196683200523	0.1065981531032645	0.5011757761638914	0.0857250699339939	0.3890727739119757	0.0454280646716999
0.979	0.0797867184000903	0.1038916252232888	0.4995223479695793	0.0891776696410412	0.3860591575537653	0.0451349632051331
0.98	0.0803787436109198	0.1013030689878669	0.4980790880610604	0.0927510255676562	0.3831097895625117	0.0448591160020181
0.981	0.0809722956978242	0.0988318644230347	0.4968459009913097	0.0964456427532001	0.380227003621357	0.044600614445223
0.982	0.081566905594815	0.0964772887076709	0.4958223878012319	0.1002619343294212	0.3774130351305146	0.0443595271908782
0.983	0.0821620987298108	0.0942385197793176	0.4950078477765731	0.1042002199324998	0.3746700183106424	0.0441359004708952
0.984	0.0827573954551262	0.0921146399866598	0.4944012806638813	0.1082607242277421	0.3719999834130415	0.0439297584155784
0.985	0.0833523114832274	0.0901046397813401	0.494001389342881	0.1124435755508091	0.3694048540444525	0.0437411033953868
0.986	0.0839463583274449	0.0882074214419602	0.4938065829519225	0.1167488046691936	0.3668864446144124	0.0435699163809978
0.987	0.0845390437475544	0.0864218028229336	0.493814980461926	0.1211763436672751	0.3644464579132202	0.0434161573208742
0.988	0.0851298722005143	0.0847465211210406	0.494024414693904	0.1257260249581041	0.3620864828283462	0.0432797655355239
0.989	0.0857183452968014	0.0831802366524657	0.4944324367739194	0.1303975804248112	0.3598079922064999	0.0431606601276979
0.99	0.0863039622627842	0.0817215366334664	0.4950363210190048	0.1351906406942851	0.3576123408677731	0.043058740407721
0.991	0.0868862204097478	0.0803689389581397	0.495833070246842	0.1401047345456319	0.3555007637775825	0.042973886333218
0.992	0.0874646156098541	0.0791208959668756	0.496819421501755	0.1451392884553999	0.3534743743817743	0.0429059589623842
0.993	0.0880386427792327	0.0779757981996936	0.4979918521887906	0.150293626281528	0.3515341631102329	0.0428548009199723
0.994	0.0886077963683605	0.076931978128739	0.4993465866076352	0.1555669690872503	0.3496809960545232	0.0428202368751087
0.995	0.0891715708595234	0.0759877138646299	0.5008796028771193	0.160958435105968	0.3479156138253015	0.0428020740301196
0.996	0.0897294612712837	0.0751412328315444	0.5025866402404787	0.1664670398475334	0.3462386305952112	0.0428001026196317
0.997	0.0902809636695691	0.0743907154064674	0.5044632067407508	0.1720916963459669	0.3446505333327762	0.0428140964192143
